<svg width="480" height="16" viewBox="0 0 480 16" fill="none" xmlns="http://www.w3.org/2000/svg">
<path fill-rule="evenodd" clip-rule="evenodd" d="M440 0H480V16H0L8 8H432L440 0ZM470.586 3.41418C471.367 2.63318 472.633 2.63318 473.414 3.41418L476.586 6.58582C477.367 7.36682 477.367 8.63318 476.586 9.41418L473.414 12.5858C472.633 13.3668 471.367 13.3668 470.586 12.5858L467.414 9.41418C466.633 8.63318 466.633 7.36682 467.414 6.58582L470.586 3.41418Z" fill="url(#paint0_linear_4019_369)"/>
<path fill-rule="evenodd" clip-rule="evenodd" d="M440 0H480V16H0L8 8H432L440 0ZM470.586 3.41418C471.367 2.63318 472.633 2.63318 473.414 3.41418L476.586 6.58582C477.367 7.36682 477.367 8.63318 476.586 9.41418L473.414 12.5858C472.633 13.3668 471.367 13.3668 470.586 12.5858L467.414 9.41418C466.633 8.63318 466.633 7.36682 467.414 6.58582L470.586 3.41418Z" fill="url(#paint1_linear_4019_369)" style="mix-blend-mode:soft-light"/>
<defs>
<linearGradient id="paint0_linear_4019_369" x1="240" y1="16" x2="240" y2="0" gradientUnits="userSpaceOnUse">
<stop stop-color="#B0B0B0"/>
<stop offset="0.449154" stop-color="#888888"/>
<stop offset="0.499621" stop-color="#F1F1F1"/>
<stop offset="0.850514" stop-color="#CCCCCC"/>
<stop offset="1" stop-color="#CCCCCC"/>
</linearGradient>
<linearGradient id="paint1_linear_4019_369" x1="480" y1="0" x2="-9.63857e-06" y2="16" gradientUnits="userSpaceOnUse">
<stop stop-color="white" stop-opacity="0"/>
<stop offset="0.162932" stop-color="white" stop-opacity="0"/>
<stop offset="0.282741" stop-color="white"/>
<stop offset="0.381023" stop-color="white" stop-opacity="0"/>
<stop offset="0.526362" stop-color="white" stop-opacity="0"/>
<stop offset="0.629143" stop-color="white"/>
<stop offset="0.841894" stop-color="white" stop-opacity="0"/>
<stop offset="1" stop-color="white" stop-opacity="0"/>
</linearGradient>
</defs>
</svg>
